# FreeCAD v0.19 build24267 +99 (Git) Arch module
# http://www.freecadweb.org
mtllib part_cathode.mtl
o Shape
usemtl color_cccccc
v 9.525 -0.0 101.599998
v 9.525 -0.0 0.0
v 9.14251 2.672103 0.0
v 8.950572 3.257742 101.599998
v 8.02576 5.129601 0.0
v 4.0 8.644399 25.0
v 6.264437 7.175128 0.0
v 4.0 8.644399 0.0
v 7.296573 6.122552 101.599998
v 4.7625 8.248892 101.599998
v 2.713881 9.130196 25.0
v -3.145908 8.990489 0.0
v 0.0 9.525 25.0
v 0.0 9.525 0.0
v 1.653999 9.380294 101.599998
v 1.371224 9.425782 25.0
v -1.653999 9.380294 101.599998
v -4.7625 8.248892 101.599998
v -5.93874 7.446945 0.0
v -7.296573 6.122552 101.599998
v -8.065048 5.067605 0.0
v -8.950572 3.257742 101.599998
v -9.286188 2.119512 0.0
v -9.525 0.0 101.599998
v -9.465109 -1.066462 0.0
v -8.950572 -3.257742 101.599998
v -8.581729 -4.132742 0.0
v -7.296573 -6.122552 101.599998
v -6.735192 -6.735192 0.0
v -4.7625 -8.248892 101.599998
v -4.132742 -8.581729 0.0
v -1.653999 -9.380294 101.599998
v -1.066462 -9.465109 0.0
v 1.653999 -9.380294 101.599998
v 2.119512 -9.286188 0.0
v 4.7625 -8.248892 101.599998
v 5.067605 -8.065048 0.0
v 7.296573 -6.122552 101.599998
v 7.446945 -5.93874 0.0
v 8.950572 -3.257742 101.599998
v 8.990489 -3.145908 0.0
v -6.028085 -6.028085 0.0
v -3.698859 -7.680759 0.0
v -7.680759 -3.698859 0.0
v -0.954497 -8.471396 0.0
v -8.471396 -0.954497 0.0
v 1.896991 -8.31126 0.0
v -8.31126 1.896991 0.0
v 4.535573 -7.218324 0.0
v -7.218324 4.535573 0.0
v 6.665113 -5.31525 0.0
v -5.31525 6.665113 0.0
v 8.046605 -2.815629 0.0
v -2.815629 8.046605 0.0
v 8.525 -0.0 0.0
v 0.0 8.525 0.0
v 8.21478 2.27882 0.0
v 7.306696 4.391789 0.0
v 5.866839 6.185129 0.0
v 4.0 7.528322 0.0
v 0.0 8.525 25.0
v 1.381731 8.412279 25.0
v 2.726922 8.077099 25.0
v 4.0 7.528322 25.0
v -6.530529 -5.479764 101.599998
v -4.2625 -7.382866 101.599998
v -8.01088 -2.915722 101.599998
v -1.480351 -8.395486 101.599998
v -8.525 0.0 101.599998
v 1.480351 -8.395486 101.599998
v -8.01088 2.915722 101.599998
v 4.2625 -7.382866 101.599998
v -6.530529 5.479764 101.599998
v 6.530529 -5.479764 101.599998
v -4.2625 7.382866 101.599998
v 8.01088 -2.915722 101.599998
v -1.480351 8.395486 101.599998
v 8.525 -0.0 101.599998
v 1.480351 8.395486 101.599998
v 8.01088 2.915722 101.599998
v 4.2625 7.382866 101.599998
v 6.530529 5.479764 101.599998
vn 0.9899100065231323 0.14169733226299286 0.0
vn 0.9104073643684387 0.4137125611305237 -0.0006648041890002787
vn 0.9848074316978455 0.17364805936813354 0.0008595204562880099
vn 0.5443076491355896 0.8388856649398804 0.0
vn 0.7577873468399048 0.6525010466575623 -0.000938315992243588
vn 0.8660246133804321 0.4999995529651642 0.0013289244379848242
vn 0.5658296942710876 0.8245174884796143 0.0027938371058553457
vn 0.35335564613342285 0.9354881048202515 0.0013127720449119806
vn 0.6427856683731079 0.766042172908783 -0.002443198347464204
vn -0.16750600934028625 0.9858710169792175 0.0
vn 0.2150018960237503 0.9766135811805725 -0.0002137408300768584
vn 0.07216813415288925 0.9973924160003662 0.000325880158925429
vn 0.3420196771621704 0.9396912455558777 0.0016643030103296041
vn -0.0 0.9999982118606567 0.001889105886220932
vn -0.1559053361415863 0.9877708554267883 -0.0015004058368504047
vn -0.4837185740470886 0.8752225637435913 -0.0013081975048407912
vn -0.34201985597610474 0.9396916627883911 0.0014169900678098202
vn -0.7456414699554443 0.6663461327552795 -0.0012790608452633023
vn -0.642786979675293 0.7660437226295471 0.0013951321598142385
vn -0.9238788485527039 0.38268300890922546 -0.0012353609781712294
vn -0.8660246133804321 0.4999995529651642 0.0013587160501629114
vn -0.9984261393547058 0.05607050284743309 -0.0011771017452701926
vn -0.9848068952560425 0.17364796996116638 0.0013077335897833109
vn -0.9609167575836182 -0.27683526277542114 -0.0011042967671528459
vn -0.9848070740699768 -0.17364799976348877 0.0012422055006027222
vn -0.8155604004859924 -0.5786709785461426 -0.001016956870444119
vn -0.8660247921943665 -0.49999964237213135 0.0011621328303590417
vn -0.6427872180938721 -0.766044020652771 0.0010675302473828197
vn -0.5786710977554321 -0.8155605792999268 -0.0009150941041298211
vn -0.34202003479003906 -0.9396921992301941 0.0009584131184965372
vn -0.2768353223800659 -0.9609169960021973 -0.0007987287826836109
vn 0.0 -0.9999996423721313 0.0008347932598553598
vn 0.056070540100336075 -0.998426616191864 -0.0006678749341517687
vn 0.34202009439468384 -0.9396923780441284 0.0006966968649066985
vn 0.38268324732780457 -0.9238795042037964 -0.0005225443164817989
vn 0.642787516117096 -0.7660443782806396 0.0005441511166281998
vn 0.666346549987793 -0.7456420063972473 -0.0003627769183367491
vn 0.8660253286361694 -0.4999999403953552 0.0003771622432395816
vn 0.8752233386039734 -0.48371899127960205 -0.00018858126713894308
vn 0.9848077893257141 -0.17364811897277832 0.0001957760687218979
vn 0.9858710169792175 -0.16750600934028625 0.0
vn 0.0 0.0 -1.0
vn 0.0 0.0 -1.0
vn 0.0 -0.0 -1.0
vn 0.0 0.0 -1.0
vn 0.0 0.0 -1.0
vn 0.0 0.0 -1.0
vn 0.0 -0.0 -1.0
vn 0.0 0.0 -1.0
vn 0.0 0.0 -1.0
vn 0.0 0.0 -1.0
vn 0.0 -0.0 -1.0
vn 0.0 0.0 -1.0
vn 0.0 0.0 -1.0
vn 0.0 0.0 -1.0
vn 0.0 0.0 -1.0
vn 0.0 -0.0 -1.0
vn 0.0 0.0 -1.0
vn 0.0 -0.0 -1.0
vn 0.0 0.0 -1.0
vn 0.0 0.0 -1.0
vn 0.0 0.0 -1.0
vn 0.0 -0.0 -1.0
vn 0.0 0.0 -1.0
vn 0.0 0.0 -1.0
vn 0.0 0.0 -1.0
vn 0.0 0.0 -1.0
vn 0.0 0.0 -1.0
vn 0.0 0.0 -1.0
vn 0.0 0.0 -1.0
vn 0.0 0.0 -1.0
vn 0.0 0.0 -1.0
vn 0.0 0.0 -1.0
vn 0.0 0.0 -1.0
vn 0.0 0.0 -1.0
vn 0.0 0.0 -1.0
vn 0.0 0.0 -1.0
vn 1.0 -5.673308943129635e-15 1.1670890897588423e-14
vn 1.0 -0.0 1.1897822882619112e-14
vn 0.0 0.0 -1.0
vn 0.0 0.0 -1.0
vn 0.0 0.0 -1.0
vn 0.0 0.0 -1.0
vn 0.0 0.0 -1.0
vn 0.0 0.0 -1.0
vn -1.0 0.0 0.0
vn -1.0 0.0 0.0
vn 0.0 0.0 1.0
vn 0.0 0.0 1.0
vn 0.0 0.0 1.0
vn 0.0 0.0 1.0
vn 0.0 0.0 1.0
vn 0.0 0.0 1.0
vn 0.0 0.0 1.0
vn 0.0 0.0 1.0
vn 0.0 0.0 1.0
vn 0.0 0.0 1.0
vn 0.0 0.0 1.0
vn 0.0 0.0 1.0
vn 0.0 0.0 1.0
vn 0.0 0.0 1.0
vn 0.0 0.0 1.0
vn 0.0 0.0 1.0
vn 0.0 0.0 1.0
vn 0.0 0.0 1.0
vn 0.0 0.0 1.0
vn 0.0 0.0 1.0
vn 0.0 0.0 1.0
vn 0.0 0.0 1.0
vn 0.0 0.0 1.0
vn 0.0 0.0 1.0
vn 0.0 0.0 1.0
vn 0.0 0.0 1.0
vn 0.0 0.0 1.0
vn 0.0 0.0 1.0
vn 0.0 0.0 1.0
vn 0.0 0.0 1.0
vn 0.0 0.0 1.0
vn 0.0 0.0 1.0
vn 0.0 0.0 1.0
vn 0.0 0.0 1.0
vn 0.0 0.0 1.0
vn 0.0 0.0 1.0
vn -0.9908608794212341 -0.13488765060901642 0.0
vn -0.918746829032898 -0.39484649896621704 0.0006313561461865902
vn -0.9848074316978455 -0.17364801466464996 -0.0008878523367457092
vn -0.5840378403663635 -0.8117263913154602 0.0
vn -0.7797675728797913 -0.6260687112808228 0.0007472137222066522
vn -0.8660247921943665 -0.4999995529651642 -0.0012617441825568676
vn -0.598519504070282 -0.8011065125465393 -0.0016519790515303612
vn -0.3958514332771301 -0.9183144569396973 -0.000387243228033185
vn -0.6427873373031616 -0.7660443186759949 0.0007481234497390687
vn 0.16750620305538177 -0.9858710765838623 1.954946748307005e-15
vn -0.24177688360214233 -0.9703318476676941 9.855165990302339e-05
vn -0.08130909502506256 -0.996688961982727 -0.00011382414231775329
vn -0.3420197069644928 -0.9396913647651672 -0.001660133944824338
vn -0.0 -0.9999985694885254 -0.0016907774843275547
vn 0.15590551495552063 -0.9877710342407227 0.0013428842648863792
vn 0.48371851444244385 -0.8752228617668152 0.0011708548991009593
vn 0.3420198857784271 -0.9396918416023254 -0.0012682215310633183
vn 0.7456416487693787 -0.6663461327552795 0.001144779846072197
vn 0.642786979675293 -0.7660439610481262 -0.0012486623600125313
vn 0.9238789081573486 -0.382683128118515 0.001105666160583496
vn 0.8660247921943665 -0.4999995529651642 -0.0012160649057477713
vn 0.9984261989593506 -0.056070443242788315 0.0010535226901993155
vn 0.9848071336746216 -0.17364796996116638 -0.001170438714325428
vn 0.9609168767929077 0.2768353819847107 0.0009883649181574583
vn 0.9848072528839111 0.17364798486232758 -0.0011117885587736964
vn 0.815560519695282 0.5786710381507874 0.0009101970354095101
vn 0.8660249710083008 0.49999964237213135 -0.0010401195613667369
vn 0.6427872180938721 0.7660441994667053 -0.0009554478456266224
vn 0.5786710977554321 0.8155605792999268 0.0008190235239453614
vn 0.3420200049877167 0.9396922588348389 -0.0008577887201681733
vn 0.27683544158935547 0.960917055606842 0.0007148734293878078
vn 0.0 0.9999998211860657 -0.0007471511489711702
vn -0.056070469319820404 0.998426616191864 0.0005977551336400211
vn -0.34202009439468384 0.9396924376487732 -0.0006235544569790363
vn -0.38268333673477173 0.9238793849945068 0.0004676859825849533
vn -0.6427873969078064 0.7660444378852844 -0.0004870209377259016
vn -0.666346549987793 0.7456421256065369 0.000324692897265777
vn -0.8660253882408142 0.49999991059303284 -0.0003375641244929284
vn -0.8752233982086182 0.4837188124656677 0.0001687874464550987
vn -0.9848078489303589 0.17364808917045593 -0.00017521603149361908
vn -0.9858710765838623 0.16750618815422058 0.0
f 1//1 2//1 3//1 
f 4//2 3//2 5//2 
f 4//3 1//3 3//3 
f 6//4 7//4 8//4 
f 9//5 5//5 7//5 
f 9//6 4//6 5//6 
f 9//7 7//7 6//7 
f 10//8 6//8 11//8 
f 10//9 9//9 6//9 
f 12//10 13//10 14//10 
f 15//11 11//11 16//11 
f 15//12 16//12 13//12 
f 15//13 10//13 11//13 
f 17//14 15//14 13//14 
f 17//15 13//15 12//15 
f 18//16 12//16 19//16 
f 18//17 17//17 12//17 
f 20//18 19//18 21//18 
f 20//19 18//19 19//19 
f 22//20 21//20 23//20 
f 22//21 20//21 21//21 
f 24//22 23//22 25//22 
f 24//23 22//23 23//23 
f 26//24 25//24 27//24 
f 26//25 24//25 25//25 
f 28//26 27//26 29//26 
f 28//27 26//27 27//27 
f 30//28 28//28 29//28 
f 30//29 29//29 31//29 
f 32//30 30//30 31//30 
f 32//31 31//31 33//31 
f 34//32 32//32 33//32 
f 34//33 33//33 35//33 
f 36//34 34//34 35//34 
f 36//35 35//35 37//35 
f 38//36 36//36 37//36 
f 38//37 37//37 39//37 
f 40//38 38//38 39//38 
f 40//39 39//39 41//39 
f 1//40 40//40 41//40 
f 1//41 41//41 2//41 
f 27//42 42//42 29//42 
f 29//43 43//43 31//43 
f 42//44 43//44 29//44 
f 27//45 44//45 42//45 
f 27//46 25//46 44//46 
f 31//47 45//47 33//47 
f 43//48 45//48 31//48 
f 25//49 46//49 44//49 
f 25//50 23//50 46//50 
f 33//51 47//51 35//51 
f 45//52 47//52 33//52 
f 23//53 48//53 46//53 
f 23//54 21//54 48//54 
f 35//55 49//55 37//55 
f 47//56 49//56 35//56 
f 21//57 50//57 48//57 
f 49//58 51//58 37//58 
f 51//59 39//59 37//59 
f 50//60 19//60 52//60 
f 21//61 19//61 50//61 
f 51//62 53//62 39//62 
f 53//63 41//63 39//63 
f 52//64 12//64 54//64 
f 19//65 12//65 52//65 
f 53//66 55//66 41//66 
f 12//67 56//67 54//67 
f 55//68 2//68 41//68 
f 12//69 14//69 56//69 
f 55//70 57//70 2//70 
f 58//71 3//71 57//71 
f 57//72 3//72 2//72 
f 59//73 5//73 58//73 
f 58//74 5//74 3//74 
f 59//75 7//75 5//75 
f 8//76 7//76 60//76 
f 60//77 7//77 59//77 
f 61//78 56//78 14//78 
f 61//79 14//79 13//79 
f 13//80 16//80 61//80 
f 61//81 16//81 62//81 
f 62//82 11//82 63//82 
f 16//83 11//83 62//83 
f 63//84 6//84 64//84 
f 11//85 6//85 63//85 
f 60//86 64//86 8//86 
f 8//87 64//87 6//87 
f 65//88 26//88 28//88 
f 66//89 28//89 30//89 
f 66//90 65//90 28//90 
f 67//91 26//91 65//91 
f 68//92 30//92 32//92 
f 68//93 66//93 30//93 
f 69//94 24//94 26//94 
f 69//95 26//95 67//95 
f 70//96 32//96 34//96 
f 70//97 68//97 32//97 
f 22//98 24//98 69//98 
f 71//99 22//99 69//99 
f 72//100 34//100 36//100 
f 72//101 70//101 34//101 
f 73//102 20//102 22//102 
f 73//103 22//103 71//103 
f 74//104 72//104 36//104 
f 38//105 74//105 36//105 
f 18//106 73//106 75//106 
f 18//107 20//107 73//107 
f 40//108 76//108 74//108 
f 40//109 74//109 38//109 
f 17//110 75//110 77//110 
f 17//111 18//111 75//111 
f 1//112 78//112 76//112 
f 1//113 76//113 40//113 
f 15//114 77//114 79//114 
f 15//115 17//115 77//115 
f 4//116 80//116 78//116 
f 4//117 78//117 1//117 
f 10//118 79//118 81//118 
f 10//119 15//119 79//119 
f 9//120 80//120 4//120 
f 9//121 10//121 81//121 
f 9//122 82//122 80//122 
f 9//123 81//123 82//123 
f 55//124 78//124 57//124 
f 57//125 80//125 58//125 
f 78//126 80//126 57//126 
f 59//127 64//127 60//127 
f 58//128 82//128 59//128 
f 80//129 82//129 58//129 
f 59//130 82//130 64//130 
f 64//131 81//131 63//131 
f 82//132 81//132 64//132 
f 61//133 54//133 56//133 
f 63//134 79//134 62//134 
f 62//135 79//135 61//135 
f 81//136 79//136 63//136 
f 79//137 77//137 61//137 
f 61//138 77//138 54//138 
f 54//139 75//139 52//139 
f 77//140 75//140 54//140 
f 52//141 73//141 50//141 
f 75//142 73//142 52//142 
f 50//143 71//143 48//143 
f 73//144 71//144 50//144 
f 48//145 69//145 46//145 
f 71//146 69//146 48//146 
f 46//147 67//147 44//147 
f 69//148 67//148 46//148 
f 44//149 65//149 42//149 
f 67//150 65//150 44//150 
f 65//151 66//151 42//151 
f 42//152 66//152 43//152 
f 66//153 68//153 43//153 
f 43//154 68//154 45//154 
f 68//155 70//155 45//155 
f 45//156 70//156 47//156 
f 70//157 72//157 47//157 
f 47//158 72//158 49//158 
f 72//159 74//159 49//159 
f 49//160 74//160 51//160 
f 74//161 76//161 51//161 
f 51//162 76//162 53//162 
f 76//163 78//163 53//163 
f 53//164 78//164 55//164 
