# FreeCAD v0.19 build24267 +99 (Git) Arch module
# http://www.freecadweb.org
mtllib part_spacer_bottom_support_ground.mtl
o Shape
usemtl color_cccccc
v 3.75877 1.368081 40.0
v 4.0 -0.0 40.0
v 4.0 -0.0 0.0
v 3.75877 1.368081 0.0
v 3.064178 2.571151 0.0
v 3.064178 2.571151 40.0
v 2.0 3.464102 0.0
v 2.0 3.464102 40.0
v 0.694593 3.939231 40.0
v 0.694593 3.939231 0.0
v -0.694593 3.939231 0.0
v -0.694593 3.939231 40.0
v -2.0 3.464102 40.0
v -2.0 3.464102 0.0
v -3.064178 2.571151 40.0
v -3.064178 2.571151 0.0
v -3.75877 1.368081 0.0
v -3.75877 1.368081 40.0
v -4.0 0.0 0.0
v -4.0 0.0 40.0
v -3.75877 -1.368081 40.0
v -3.75877 -1.368081 0.0
v -3.064178 -2.571151 40.0
v -3.064178 -2.571151 0.0
v -2.0 -3.464102 40.0
v -2.0 -3.464102 0.0
v -0.694593 -3.939231 40.0
v -0.694593 -3.939231 0.0
v 0.694593 -3.939231 40.0
v 0.694593 -3.939231 0.0
v 2.0 -3.464102 40.0
v 2.0 -3.464102 0.0
v 3.064178 -2.571151 0.0
v 3.064178 -2.571151 40.0
v 3.75877 -1.368081 40.0
v 3.75877 -1.368081 0.0
v -1.75 -3.031089 40.0
v -2.681155 -2.249757 40.0
v -3.288924 -1.19707 40.0
v -0.607769 -3.446827 40.0
v -3.5 0.0 40.0
v 0.607769 -3.446827 40.0
v -3.288924 1.19707 40.0
v 1.75 -3.031089 40.0
v -2.681155 2.249757 40.0
v 2.681155 -2.249757 40.0
v -1.75 3.031089 40.0
v 3.288924 -1.19707 40.0
v -0.607769 3.446827 40.0
v 3.5 -0.0 40.0
v 3.288924 1.19707 40.0
v 0.607769 3.446827 40.0
v 1.75 3.031089 40.0
v 2.681155 2.249757 40.0
v -1.75 -3.031089 0.0
v -2.681155 -2.249757 0.0
v -3.288924 -1.19707 0.0
v -0.607769 -3.446827 0.0
v -3.5 0.0 0.0
v 0.607769 -3.446827 0.0
v -3.288924 1.19707 0.0
v 1.75 -3.031089 0.0
v -2.681155 2.249757 0.0
v 2.681155 -2.249757 0.0
v -1.75 3.031089 0.0
v 3.288924 -1.19707 0.0
v -0.607769 3.446827 0.0
v 3.5 -0.0 0.0
v 3.288924 1.19707 0.0
v 0.607769 3.446827 0.0
v 1.75 3.031089 0.0
v 2.681155 2.249757 0.0
vn 0.9848077893257141 0.1736481934785843 0.0
vn 0.9848077893257141 0.1736481934785843 0.0
vn 0.8660253882408142 0.5 0.0
vn 0.642787516117096 0.7660444378852844 0.0
vn 0.8660253882408142 0.5 0.0
vn 0.642787516117096 0.7660444378852844 0.0
vn 0.3420201241970062 0.9396926760673523 0.0
vn 0.0 1.0 0.0
vn 0.3420201241970062 0.9396926760673523 0.0
vn -0.0 1.0 0.0
vn -0.3420201241970062 0.9396926760673523 0.0
vn -0.3420201241970062 0.9396926760673523 0.0
vn -0.642787516117096 0.7660444378852844 0.0
vn -0.8660253882408142 0.5 0.0
vn -0.642787516117096 0.7660444378852844 0.0
vn -0.9848077893257141 0.1736481934785843 0.0
vn -0.8660253882408142 0.5 0.0
vn -0.9848077893257141 0.1736481934785843 0.0
vn -0.9848077893257141 -0.1736481934785843 -0.0
vn -0.9848077893257141 -0.1736481934785843 0.0
vn -0.8660253882408142 -0.5 -0.0
vn -0.8660253882408142 -0.5 0.0
vn -0.642787516117096 -0.7660444378852844 -0.0
vn -0.642787516117096 -0.7660444378852844 0.0
vn -0.3420201241970062 -0.9396926760673523 -0.0
vn -0.3420201241970062 -0.9396926760673523 0.0
vn 0.0 -1.0 -0.0
vn -0.0 -1.0 0.0
vn 0.3420201241970062 -0.9396926760673523 0.0
vn 0.3420201241970062 -0.9396926760673523 0.0
vn 0.642787516117096 -0.7660444378852844 0.0
vn 0.642787516117096 -0.7660444378852844 0.0
vn 0.8660253882408142 -0.5 0.0
vn 0.8660253882408142 -0.5 0.0
vn 0.9848077893257141 -0.1736481934785843 0.0
vn 0.9848077893257141 -0.1736481934785843 0.0
vn 0.0 0.0 1.0
vn 0.0 0.0 1.0
vn 0.0 0.0 1.0
vn 0.0 0.0 1.0
vn 0.0 0.0 1.0
vn 0.0 0.0 1.0
vn 0.0 0.0 1.0
vn 0.0 0.0 1.0
vn 0.0 0.0 1.0
vn 0.0 0.0 1.0
vn 0.0 0.0 1.0
vn 0.0 0.0 1.0
vn 0.0 0.0 1.0
vn 0.0 0.0 1.0
vn 0.0 0.0 1.0
vn 0.0 0.0 1.0
vn 0.0 0.0 1.0
vn 0.0 0.0 1.0
vn 0.0 0.0 1.0
vn 0.0 0.0 1.0
vn 0.0 0.0 1.0
vn 0.0 0.0 1.0
vn 0.0 0.0 1.0
vn 0.0 0.0 1.0
vn 0.0 0.0 1.0
vn 0.0 0.0 1.0
vn 0.0 0.0 1.0
vn 0.0 0.0 1.0
vn 0.0 0.0 1.0
vn 0.0 0.0 1.0
vn 0.0 0.0 1.0
vn 0.0 0.0 1.0
vn 0.0 0.0 1.0
vn 0.0 0.0 1.0
vn 0.0 0.0 1.0
vn 0.0 0.0 1.0
vn 0.0 0.0 -1.0
vn 0.0 -0.0 -1.0
vn 0.0 0.0 -1.0
vn 0.0 0.0 -1.0
vn 0.0 0.0 -1.0
vn 0.0 -0.0 -1.0
vn 0.0 0.0 -1.0
vn 0.0 0.0 -1.0
vn 0.0 0.0 -1.0
vn 0.0 -0.0 -1.0
vn 0.0 0.0 -1.0
vn 0.0 0.0 -1.0
vn 0.0 0.0 -1.0
vn 0.0 0.0 -1.0
vn 0.0 -0.0 -1.0
vn 0.0 0.0 -1.0
vn 0.0 -0.0 -1.0
vn 0.0 0.0 -1.0
vn 0.0 0.0 -1.0
vn 0.0 0.0 -1.0
vn 0.0 -0.0 -1.0
vn 0.0 0.0 -1.0
vn 0.0 0.0 -1.0
vn 0.0 0.0 -1.0
vn 0.0 -0.0 -1.0
vn 0.0 0.0 -1.0
vn 0.0 0.0 -1.0
vn 0.0 0.0 -1.0
vn 0.0 0.0 -1.0
vn 0.0 0.0 -1.0
vn 0.0 -0.0 -1.0
vn 0.0 0.0 -1.0
vn 0.0 0.0 -1.0
vn 0.0 -0.0 -1.0
vn 0.0 0.0 -1.0
vn 0.0 0.0 -1.0
vn -0.9848077893257141 -0.1736481487751007 -0.0
vn -0.9848077893257141 -0.1736481487751007 0.0
vn -0.8660253286361694 -0.5000000596046448 0.0
vn -0.6427876353263855 -0.7660443782806396 0.0
vn -0.8660253286361694 -0.5000000596046448 0.0
vn -0.6427876353263855 -0.7660443782806396 0.0
vn -0.3420202136039734 -0.9396926164627075 0.0
vn 0.0 -1.0 0.0
vn -0.3420202136039734 -0.9396926164627075 -0.0
vn -0.0 -1.0 0.0
vn 0.3420202136039734 -0.9396926164627075 0.0
vn 0.3420202136039734 -0.9396926164627075 0.0
vn 0.6427876353263855 -0.7660443782806396 0.0
vn 0.8660253286361694 -0.5000000596046448 0.0
vn 0.6427876353263855 -0.7660443782806396 0.0
vn 0.9848077893257141 -0.1736481487751007 0.0
vn 0.8660253286361694 -0.5000000596046448 0.0
vn 0.9848077893257141 -0.1736481487751007 0.0
vn 0.9848077893257141 0.1736481487751007 0.0
vn 0.9848077893257141 0.1736481487751007 0.0
vn 0.8660253286361694 0.5000000596046448 0.0
vn 0.8660253286361694 0.5000000596046448 0.0
vn 0.6427876353263855 0.7660443782806396 0.0
vn 0.6427876353263855 0.7660443782806396 0.0
vn 0.3420202136039734 0.9396926164627075 0.0
vn 0.3420202136039734 0.9396926164627075 0.0
vn 0.0 1.0 0.0
vn -0.0 1.0 0.0
vn -0.3420202136039734 0.9396926164627075 0.0
vn -0.3420202136039734 0.9396926164627075 0.0
vn -0.6427876353263855 0.7660443782806396 0.0
vn -0.6427876353263855 0.7660443782806396 0.0
vn -0.8660253286361694 0.5000000596046448 0.0
vn -0.8660253286361694 0.5000000596046448 0.0
vn -0.9848077893257141 0.1736481487751007 0.0
vn -0.9848077893257141 0.1736481487751007 0.0
f 1//1 2//1 3//1 
f 1//2 3//2 4//2 
f 1//3 4//3 5//3 
f 6//4 5//4 7//4 
f 6//5 1//5 5//5 
f 8//6 6//6 7//6 
f 9//7 7//7 10//7 
f 9//8 10//8 11//8 
f 9//9 8//9 7//9 
f 12//10 9//10 11//10 
f 13//11 11//11 14//11 
f 13//12 12//12 11//12 
f 15//13 14//13 16//13 
f 15//14 16//14 17//14 
f 15//15 13//15 14//15 
f 18//16 17//16 19//16 
f 18//17 15//17 17//17 
f 20//18 18//18 19//18 
f 21//19 19//19 22//19 
f 21//20 20//20 19//20 
f 23//21 22//21 24//21 
f 23//22 21//22 22//22 
f 25//23 24//23 26//23 
f 25//24 23//24 24//24 
f 27//25 26//25 28//25 
f 27//26 25//26 26//26 
f 29//27 28//27 30//27 
f 29//28 27//28 28//28 
f 31//29 29//29 30//29 
f 31//30 30//30 32//30 
f 31//31 32//31 33//31 
f 34//32 31//32 33//32 
f 35//33 34//33 33//33 
f 35//34 33//34 36//34 
f 35//35 36//35 3//35 
f 2//36 35//36 3//36 
f 37//37 23//37 25//37 
f 37//38 38//38 23//38 
f 39//39 21//39 23//39 
f 39//40 23//40 38//40 
f 40//41 25//41 27//41 
f 40//42 37//42 25//42 
f 41//43 20//43 21//43 
f 41//44 21//44 39//44 
f 42//45 27//45 29//45 
f 42//46 40//46 27//46 
f 18//47 20//47 41//47 
f 43//48 18//48 41//48 
f 44//49 29//49 31//49 
f 44//50 42//50 29//50 
f 45//51 15//51 18//51 
f 45//52 18//52 43//52 
f 34//53 46//53 44//53 
f 34//54 44//54 31//54 
f 13//55 45//55 47//55 
f 13//56 15//56 45//56 
f 35//57 48//57 46//57 
f 35//58 46//58 34//58 
f 12//59 47//59 49//59 
f 12//60 13//60 47//60 
f 2//61 50//61 48//61 
f 2//62 48//62 35//62 
f 51//63 50//63 2//63 
f 9//64 49//64 52//64 
f 9//65 12//65 49//65 
f 1//66 51//66 2//66 
f 8//67 9//67 52//67 
f 8//68 52//68 53//68 
f 6//69 51//69 1//69 
f 6//70 8//70 53//70 
f 6//71 54//71 51//71 
f 6//72 53//72 54//72 
f 24//73 55//73 26//73 
f 56//74 55//74 24//74 
f 22//75 57//75 24//75 
f 24//76 57//76 56//76 
f 26//77 58//77 28//77 
f 55//78 58//78 26//78 
f 19//79 59//79 22//79 
f 22//80 59//80 57//80 
f 28//81 60//81 30//81 
f 58//82 60//82 28//82 
f 19//83 17//83 59//83 
f 17//84 61//84 59//84 
f 30//85 62//85 32//85 
f 60//86 62//86 30//86 
f 16//87 63//87 17//87 
f 17//88 63//88 61//88 
f 64//89 33//89 62//89 
f 62//90 33//90 32//90 
f 63//91 14//91 65//91 
f 16//92 14//92 63//92 
f 66//93 36//93 64//93 
f 64//94 36//94 33//94 
f 65//95 11//95 67//95 
f 14//96 11//96 65//96 
f 68//97 3//97 66//97 
f 66//98 3//98 36//98 
f 68//99 69//99 3//99 
f 67//100 10//100 70//100 
f 11//101 10//101 67//101 
f 69//102 4//102 3//102 
f 10//103 7//103 70//103 
f 70//104 7//104 71//104 
f 69//105 5//105 4//105 
f 7//106 5//106 71//106 
f 72//107 5//107 69//107 
f 71//108 5//108 72//108 
f 50//109 51//109 68//109 
f 68//110 51//110 69//110 
f 69//111 51//111 72//111 
f 72//112 54//112 71//112 
f 51//113 54//113 72//113 
f 54//114 53//114 71//114 
f 71//115 52//115 70//115 
f 70//116 52//116 67//116 
f 53//117 52//117 71//117 
f 52//118 49//118 67//118 
f 67//119 47//119 65//119 
f 49//120 47//120 67//120 
f 65//121 45//121 63//121 
f 63//122 45//122 61//122 
f 47//123 45//123 65//123 
f 61//124 43//124 59//124 
f 45//125 43//125 61//125 
f 43//126 41//126 59//126 
f 59//127 39//127 57//127 
f 41//128 39//128 59//128 
f 57//129 38//129 56//129 
f 39//130 38//130 57//130 
f 56//131 37//131 55//131 
f 38//132 37//132 56//132 
f 55//133 40//133 58//133 
f 37//134 40//134 55//134 
f 58//135 42//135 60//135 
f 40//136 42//136 58//136 
f 42//137 44//137 60//137 
f 60//138 44//138 62//138 
f 62//139 44//139 64//139 
f 44//140 46//140 64//140 
f 46//141 48//141 64//141 
f 64//142 48//142 66//142 
f 66//143 48//143 68//143 
f 48//144 50//144 68//144 
