# FreeCAD v0.19 build24267 +99 (Git) Arch module
# http://www.freecadweb.org
mtllib part_toroid.mtl
o Shape
usemtl color_cccccc
v 35.802288 13.030968 6.35
v 38.099998 -0.0 6.35
v 38.099998 -0.0 0.0
v 35.802288 13.030968 0.0
v 29.186293 24.490208 6.35
v 29.186293 24.490208 0.0
v 19.049999 32.995567 6.35
v 19.049999 32.995567 0.0
v 6.615995 37.521175 6.35
v 6.615995 37.521175 0.0
v -6.615995 37.521175 6.35
v -6.615995 37.521175 0.0
v -19.049999 32.995567 6.35
v -19.049999 32.995567 0.0
v -29.186293 24.490208 6.35
v -29.186293 24.490208 0.0
v -35.802288 13.030968 0.0
v -35.802288 13.030968 6.35
v -38.099998 0.0 6.35
v -38.099998 0.0 0.0
v -35.802288 -13.030968 0.0
v -35.802288 -13.030968 6.35
v -29.186293 -24.490208 6.35
v -29.186293 -24.490208 0.0
v -19.049999 -32.995567 6.35
v -19.049999 -32.995567 0.0
v -6.615995 -37.521175 6.35
v -6.615995 -37.521175 0.0
v 6.615995 -37.521175 6.35
v 6.615995 -37.521175 0.0
v 19.049999 -32.995567 0.0
v 19.049999 -32.995567 6.35
v 29.186293 -24.490208 6.35
v 29.186293 -24.490208 0.0
v 35.802288 -13.030968 6.35
v 35.802288 -13.030968 0.0
v -15.875 -27.496307 6.35
v -24.321911 -20.408506 6.35
v -29.835241 -10.859139 6.35
v -5.51333 -31.267647 6.35
v -31.75 0.0 6.35
v 5.51333 -31.267647 6.35
v -29.835241 10.859139 6.35
v 15.875 -27.496307 6.35
v -24.321911 20.408506 6.35
v 24.321911 -20.408506 6.35
v -15.875 27.496307 6.35
v 29.835241 -10.859139 6.35
v -5.51333 31.267647 6.35
v 31.75 -0.0 6.35
v 29.835241 10.859139 6.35
v 5.51333 31.267647 6.35
v 15.875 27.496307 6.35
v 24.321911 20.408506 6.35
v -15.875 -27.496307 0.0
v -24.321911 -20.408506 0.0
v -29.835241 -10.859139 0.0
v -5.51333 -31.267647 0.0
v -31.75 0.0 0.0
v 5.51333 -31.267647 0.0
v -29.835241 10.859139 0.0
v 15.875 -27.496307 0.0
v -24.321911 20.408506 0.0
v 24.321911 -20.408506 0.0
v -15.875 27.496307 0.0
v 29.835241 -10.859139 0.0
v -5.51333 31.267647 0.0
v 31.75 -0.0 0.0
v 29.835241 10.859139 0.0
v 5.51333 31.267647 0.0
v 15.875 27.496307 0.0
v 24.321911 20.408506 0.0
vn 0.9848077893257141 0.17364811897277832 0.0
vn 0.9848077893257141 0.17364811897277832 0.0
vn 0.8660253882408142 0.5 0.0
vn 0.8660253882408142 0.5 0.0
vn 0.6427876353263855 0.7660444974899292 0.0
vn 0.6427876353263855 0.7660444974899292 0.0
vn 0.342020183801651 0.9396926164627075 0.0
vn 0.342020183801651 0.9396926164627075 0.0
vn 0.0 1.0 0.0
vn -0.0 1.0 0.0
vn -0.342020183801651 0.9396926164627075 0.0
vn -0.342020183801651 0.9396926164627075 0.0
vn -0.6427876353263855 0.7660444974899292 0.0
vn -0.8660253882408142 0.5 0.0
vn -0.6427876353263855 0.7660444974899292 0.0
vn -0.8660253882408142 0.5 0.0
vn -0.9848077893257141 0.17364811897277832 0.0
vn -0.9848077893257141 -0.17364811897277832 -0.0
vn -0.9848077893257141 0.17364811897277832 0.0
vn -0.9848077893257141 -0.17364811897277832 -0.0
vn -0.8660253882408142 -0.5 -0.0
vn -0.8660253882408142 -0.5 0.0
vn -0.6427876353263855 -0.7660444974899292 -0.0
vn -0.6427876353263855 -0.7660444974899292 0.0
vn -0.342020183801651 -0.9396926164627075 -0.0
vn -0.342020183801651 -0.9396926164627075 0.0
vn 0.0 -1.0 -0.0
vn 0.342020183801651 -0.9396926164627075 0.0
vn -0.0 -1.0 0.0
vn 0.342020183801651 -0.9396926164627075 0.0
vn 0.6427876353263855 -0.7660444974899292 0.0
vn 0.6427876353263855 -0.7660444974899292 0.0
vn 0.8660253882408142 -0.5 0.0
vn 0.8660253882408142 -0.5 0.0
vn 0.9848077893257141 -0.17364811897277832 0.0
vn 0.9848077893257141 -0.17364811897277832 0.0
vn 0.0 0.0 1.0
vn 0.0 0.0 1.0
vn 0.0 0.0 1.0
vn 0.0 0.0 1.0
vn 0.0 0.0 1.0
vn 0.0 0.0 1.0
vn 0.0 0.0 1.0
vn 0.0 0.0 1.0
vn 0.0 0.0 1.0
vn 0.0 0.0 1.0
vn 0.0 0.0 1.0
vn 0.0 0.0 1.0
vn 0.0 0.0 1.0
vn 0.0 0.0 1.0
vn 0.0 0.0 1.0
vn 0.0 0.0 1.0
vn 0.0 0.0 1.0
vn 0.0 0.0 1.0
vn 0.0 0.0 1.0
vn 0.0 0.0 1.0
vn 0.0 0.0 1.0
vn 0.0 0.0 1.0
vn 0.0 0.0 1.0
vn 0.0 0.0 1.0
vn 0.0 0.0 1.0
vn 0.0 0.0 1.0
vn 0.0 0.0 1.0
vn 0.0 0.0 1.0
vn 0.0 0.0 1.0
vn 0.0 0.0 1.0
vn 0.0 0.0 1.0
vn 0.0 0.0 1.0
vn 0.0 0.0 1.0
vn 0.0 0.0 1.0
vn 0.0 0.0 1.0
vn 0.0 0.0 1.0
vn 0.0 0.0 -1.0
vn 0.0 -0.0 -1.0
vn 0.0 0.0 -1.0
vn 0.0 0.0 -1.0
vn 0.0 0.0 -1.0
vn 0.0 -0.0 -1.0
vn 0.0 0.0 -1.0
vn 0.0 0.0 -1.0
vn 0.0 0.0 -1.0
vn 0.0 -0.0 -1.0
vn 0.0 -0.0 -1.0
vn 0.0 0.0 -1.0
vn 0.0 0.0 -1.0
vn 0.0 0.0 -1.0
vn 0.0 0.0 -1.0
vn 0.0 -0.0 -1.0
vn 0.0 -0.0 -1.0
vn 0.0 0.0 -1.0
vn 0.0 0.0 -1.0
vn 0.0 0.0 -1.0
vn 0.0 0.0 -1.0
vn 0.0 -0.0 -1.0
vn 0.0 0.0 -1.0
vn 0.0 0.0 -1.0
vn 0.0 0.0 -1.0
vn 0.0 0.0 -1.0
vn 0.0 0.0 -1.0
vn 0.0 0.0 -1.0
vn 0.0 0.0 -1.0
vn 0.0 0.0 -1.0
vn 0.0 0.0 -1.0
vn 0.0 0.0 -1.0
vn 0.0 0.0 -1.0
vn 0.0 -0.0 -1.0
vn 0.0 0.0 -1.0
vn 0.0 0.0 -1.0
vn -0.9848077297210693 -0.17364811897277832 -0.0
vn -0.9848077297210693 -0.17364811897277832 0.0
vn -0.8660253286361694 -0.5000000596046448 0.0
vn -0.8660253286361694 -0.5000000596046448 -0.0
vn -0.6427876353263855 -0.7660443782806396 0.0
vn -0.6427876353263855 -0.7660443782806396 -0.0
vn -0.3420201241970062 -0.9396926164627075 0.0
vn -0.3420201241970062 -0.9396926164627075 -0.0
vn 0.0 -1.0 0.0
vn -0.0 -1.0 -0.0
vn 0.3420201241970062 -0.9396926164627075 0.0
vn 0.3420201241970062 -0.9396926164627075 0.0
vn 0.6427876353263855 -0.7660443782806396 0.0
vn 0.8660253286361694 -0.5000000596046448 0.0
vn 0.6427876353263855 -0.7660443782806396 0.0
vn 0.8660253286361694 -0.5000000596046448 0.0
vn 0.9848077297210693 -0.17364811897277832 0.0
vn 0.9848077297210693 0.17364811897277832 -0.0
vn 0.9848077297210693 -0.17364811897277832 0.0
vn 0.9848077297210693 0.17364811897277832 0.0
vn 0.8660253286361694 0.5000000596046448 0.0
vn 0.8660253286361694 0.5000000596046448 0.0
vn 0.6427876353263855 0.7660443782806396 0.0
vn 0.6427876353263855 0.7660443782806396 0.0
vn 0.3420201241970062 0.9396926164627075 0.0
vn 0.3420201241970062 0.9396926164627075 0.0
vn 0.0 1.0 0.0
vn -0.3420201241970062 0.9396926164627075 0.0
vn -0.0 1.0 0.0
vn -0.3420201241970062 0.9396926164627075 0.0
vn -0.6427876353263855 0.7660443782806396 0.0
vn -0.6427876353263855 0.7660443782806396 0.0
vn -0.8660253286361694 0.5000000596046448 0.0
vn -0.8660253286361694 0.5000000596046448 0.0
vn -0.9848077297210693 0.17364811897277832 0.0
vn -0.9848077297210693 0.17364811897277832 0.0
f 1//1 2//1 3//1 
f 1//2 3//2 4//2 
f 5//3 4//3 6//3 
f 5//4 1//4 4//4 
f 7//5 6//5 8//5 
f 7//6 5//6 6//6 
f 9//7 8//7 10//7 
f 9//8 7//8 8//8 
f 11//9 10//9 12//9 
f 11//10 9//10 10//10 
f 13//11 12//11 14//11 
f 13//12 11//12 12//12 
f 15//13 14//13 16//13 
f 15//14 16//14 17//14 
f 15//15 13//15 14//15 
f 18//16 15//16 17//16 
f 19//17 17//17 20//17 
f 19//18 20//18 21//18 
f 19//19 18//19 17//19 
f 22//20 19//20 21//20 
f 23//21 21//21 24//21 
f 23//22 22//22 21//22 
f 25//23 24//23 26//23 
f 25//24 23//24 24//24 
f 27//25 26//25 28//25 
f 27//26 25//26 26//26 
f 29//27 28//27 30//27 
f 29//28 30//28 31//28 
f 29//29 27//29 28//29 
f 32//30 29//30 31//30 
f 33//31 32//31 31//31 
f 33//32 31//32 34//32 
f 35//33 33//33 34//33 
f 35//34 34//34 36//34 
f 2//35 35//35 36//35 
f 2//36 36//36 3//36 
f 37//37 23//37 25//37 
f 37//38 38//38 23//38 
f 39//39 22//39 23//39 
f 39//40 23//40 38//40 
f 40//41 25//41 27//41 
f 40//42 37//42 25//42 
f 41//43 19//43 22//43 
f 41//44 22//44 39//44 
f 42//45 27//45 29//45 
f 42//46 40//46 27//46 
f 43//47 18//47 19//47 
f 43//48 19//48 41//48 
f 32//49 42//49 29//49 
f 44//50 42//50 32//50 
f 15//51 18//51 43//51 
f 45//52 15//52 43//52 
f 33//53 46//53 44//53 
f 33//54 44//54 32//54 
f 13//55 45//55 47//55 
f 13//56 15//56 45//56 
f 48//57 46//57 33//57 
f 35//58 48//58 33//58 
f 11//59 47//59 49//59 
f 11//60 13//60 47//60 
f 50//61 48//61 35//61 
f 2//62 50//62 35//62 
f 51//63 50//63 2//63 
f 9//64 52//64 53//64 
f 9//65 49//65 52//65 
f 9//66 11//66 49//66 
f 1//67 51//67 2//67 
f 7//68 9//68 53//68 
f 5//69 51//69 1//69 
f 5//70 7//70 53//70 
f 5//71 54//71 51//71 
f 5//72 53//72 54//72 
f 24//73 55//73 26//73 
f 56//74 55//74 24//74 
f 21//75 57//75 24//75 
f 24//76 57//76 56//76 
f 26//77 58//77 28//77 
f 55//78 58//78 26//78 
f 20//79 59//79 21//79 
f 21//80 59//80 57//80 
f 28//81 60//81 30//81 
f 58//82 60//82 28//82 
f 17//83 61//83 20//83 
f 20//84 61//84 59//84 
f 60//85 31//85 30//85 
f 60//86 62//86 31//86 
f 17//87 16//87 61//87 
f 16//88 63//88 61//88 
f 64//89 34//89 62//89 
f 62//90 34//90 31//90 
f 63//91 14//91 65//91 
f 16//92 14//92 63//92 
f 64//93 66//93 34//93 
f 66//94 36//94 34//94 
f 65//95 12//95 67//95 
f 14//96 12//96 65//96 
f 66//97 68//97 36//97 
f 68//98 3//98 36//98 
f 68//99 69//99 3//99 
f 70//100 10//100 71//100 
f 67//101 10//101 70//101 
f 12//102 10//102 67//102 
f 69//103 4//103 3//103 
f 10//104 8//104 71//104 
f 69//105 6//105 4//105 
f 8//106 6//106 71//106 
f 72//107 6//107 69//107 
f 71//108 6//108 72//108 
f 50//109 51//109 68//109 
f 68//110 51//110 69//110 
f 69//111 54//111 72//111 
f 51//112 54//112 69//112 
f 72//113 53//113 71//113 
f 54//114 53//114 72//114 
f 71//115 52//115 70//115 
f 53//116 52//116 71//116 
f 70//117 49//117 67//117 
f 52//118 49//118 70//118 
f 67//119 47//119 65//119 
f 49//120 47//120 67//120 
f 65//121 45//121 63//121 
f 63//122 45//122 61//122 
f 47//123 45//123 65//123 
f 45//124 43//124 61//124 
f 61//125 41//125 59//125 
f 59//126 41//126 57//126 
f 43//127 41//127 61//127 
f 41//128 39//128 57//128 
f 57//129 38//129 56//129 
f 39//130 38//130 57//130 
f 56//131 37//131 55//131 
f 38//132 37//132 56//132 
f 55//133 40//133 58//133 
f 37//134 40//134 55//134 
f 58//135 42//135 60//135 
f 60//136 42//136 62//136 
f 40//137 42//137 58//137 
f 42//138 44//138 62//138 
f 44//139 46//139 62//139 
f 62//140 46//140 64//140 
f 46//141 48//141 64//141 
f 64//142 48//142 66//142 
f 48//143 50//143 66//143 
f 66//144 50//144 68//144 
