# FreeCAD v0.19 build24267 +99 (Git) Arch module
# http://www.freecadweb.org
mtllib part_tank.mtl
o Shape
usemtl color_cccccc
v 250.0 -0.0 500.0
v 250.0 -0.0 0.0
v 234.923157 85.505035 0.0
v 234.923157 85.505035 500.0
v 191.511108 160.696899 0.0
v 191.511108 160.696899 500.0
v 125.0 216.506348 500.0
v 125.0 216.506348 0.0
v 43.412045 246.201935 500.0
v 43.412045 246.201935 0.0
v -43.412045 246.201935 500.0
v -43.412045 246.201935 0.0
v -125.0 216.506348 0.0
v -125.0 216.506348 500.0
v -191.511108 160.696899 0.0
v -191.511108 160.696899 500.0
v -234.923157 85.505035 0.0
v -234.923157 85.505035 500.0
v -250.0 0.0 500.0
v -250.0 0.0 0.0
v -234.923157 -85.505035 500.0
v -234.923157 -85.505035 0.0
v -191.511108 -160.696899 500.0
v -191.511108 -160.696899 0.0
v -125.0 -216.506348 0.0
v -125.0 -216.506348 500.0
v -43.412045 -246.201935 500.0
v -43.412045 -246.201935 0.0
v 43.412045 -246.201935 500.0
v 43.412045 -246.201935 0.0
v 125.0 -216.506348 500.0
v 125.0 -216.506348 0.0
v 191.511108 -160.696899 500.0
v 191.511108 -160.696899 0.0
v 234.923157 -85.505035 500.0
v 234.923157 -85.505035 0.0
v -189.595993 -159.089935 500.0
v -123.75 -214.341293 500.0
v -232.573929 -84.649986 500.0
v -42.977924 -243.739914 500.0
v -247.5 0.0 500.0
v 42.977924 -243.739914 500.0
v -232.573929 84.649986 500.0
v 123.75 -214.341293 500.0
v -189.595993 159.089935 500.0
v 189.595993 -159.089935 500.0
v -123.75 214.341293 500.0
v 232.573929 -84.649986 500.0
v -42.977924 243.739914 500.0
v 247.5 -0.0 500.0
v 42.977924 243.739914 500.0
v 232.573929 84.649986 500.0
v 123.75 214.341293 500.0
v 189.595993 159.089935 500.0
v -189.595993 -159.089935 0.0
v -123.75 -214.341293 0.0
v -232.573929 -84.649986 0.0
v -42.977924 -243.739914 0.0
v -247.5 0.0 0.0
v 42.977924 -243.739914 0.0
v -232.573929 84.649986 0.0
v 123.75 -214.341293 0.0
v -189.595993 159.089935 0.0
v 189.595993 -159.089935 0.0
v -123.75 214.341293 0.0
v 232.573929 -84.649986 0.0
v -42.977924 243.739914 0.0
v 247.5 -0.0 0.0
v 42.977924 243.739914 0.0
v 232.573929 84.649986 0.0
v 123.75 214.341293 0.0
v 189.595993 159.089935 0.0
vn 0.9848077297210693 0.1736481487751007 0.0
vn 0.8660253882408142 0.5 0.0
vn 0.9848077297210693 0.1736481487751007 0.0
vn 0.8660253882408142 0.5 0.0
vn 0.6427876353263855 0.7660444378852844 0.0
vn 0.6427876353263855 0.7660444378852844 0.0
vn 0.3420201539993286 0.9396926164627075 0.0
vn 0.3420201539993286 0.9396926164627075 0.0
vn 0.0 1.0 0.0
vn -0.3420201539993286 0.9396926164627075 0.0
vn -0.0 1.0 0.0
vn -0.6427876353263855 0.7660444378852844 0.0
vn -0.3420201539993286 0.9396926164627075 0.0
vn -0.8660253882408142 0.5 0.0
vn -0.6427876353263855 0.7660444378852844 0.0
vn -0.8660253882408142 0.5 0.0
vn -0.9848077297210693 0.1736481487751007 0.0
vn -0.9848077297210693 0.1736481487751007 0.0
vn -0.9848077297210693 -0.1736481487751007 -0.0
vn -0.9848077297210693 -0.1736481487751007 0.0
vn -0.8660253882408142 -0.5 -0.0
vn -0.6427876353263855 -0.7660444378852844 -0.0
vn -0.8660253882408142 -0.5 0.0
vn -0.6427876353263855 -0.7660444378852844 -0.0
vn -0.3420201539993286 -0.9396926164627075 -0.0
vn -0.3420201539993286 -0.9396926164627075 0.0
vn 0.0 -1.0 -0.0
vn -0.0 -1.0 0.0
vn 0.3420201539993286 -0.9396926164627075 0.0
vn 0.3420201539993286 -0.9396926164627075 0.0
vn 0.6427876353263855 -0.7660444378852844 0.0
vn 0.6427876353263855 -0.7660444378852844 0.0
vn 0.8660253882408142 -0.5 0.0
vn 0.8660253882408142 -0.5 0.0
vn 0.9848077297210693 -0.1736481487751007 0.0
vn 0.9848077297210693 -0.1736481487751007 0.0
vn 0.0 0.0 1.0
vn 0.0 0.0 1.0
vn 0.0 0.0 1.0
vn 0.0 0.0 1.0
vn 0.0 0.0 1.0
vn 0.0 0.0 1.0
vn 0.0 0.0 1.0
vn 0.0 0.0 1.0
vn 0.0 0.0 1.0
vn 0.0 0.0 1.0
vn 0.0 0.0 1.0
vn 0.0 0.0 1.0
vn 0.0 0.0 1.0
vn 0.0 0.0 1.0
vn 0.0 0.0 1.0
vn 0.0 0.0 1.0
vn 0.0 0.0 1.0
vn 0.0 0.0 1.0
vn 0.0 0.0 1.0
vn 0.0 0.0 1.0
vn 0.0 0.0 1.0
vn 0.0 0.0 1.0
vn 0.0 0.0 1.0
vn 0.0 0.0 1.0
vn 0.0 0.0 1.0
vn 0.0 0.0 1.0
vn 0.0 0.0 1.0
vn 0.0 0.0 1.0
vn 0.0 0.0 1.0
vn 0.0 0.0 1.0
vn 0.0 0.0 1.0
vn 0.0 0.0 1.0
vn 0.0 0.0 1.0
vn 0.0 0.0 1.0
vn 0.0 0.0 1.0
vn 0.0 0.0 1.0
vn 0.0 -0.0 -1.0
vn 0.0 0.0 -1.0
vn 0.0 0.0 -1.0
vn 0.0 0.0 -1.0
vn 0.0 0.0 -1.0
vn 0.0 -0.0 -1.0
vn 0.0 0.0 -1.0
vn 0.0 0.0 -1.0
vn 0.0 0.0 -1.0
vn 0.0 -0.0 -1.0
vn 0.0 0.0 -1.0
vn 0.0 -0.0 -1.0
vn 0.0 0.0 -1.0
vn 0.0 0.0 -1.0
vn 0.0 0.0 -1.0
vn 0.0 -0.0 -1.0
vn 0.0 -0.0 -1.0
vn 0.0 0.0 -1.0
vn 0.0 0.0 -1.0
vn 0.0 0.0 -1.0
vn 0.0 0.0 -1.0
vn 0.0 -0.0 -1.0
vn 0.0 0.0 -1.0
vn 0.0 0.0 -1.0
vn 0.0 0.0 -1.0
vn 0.0 -0.0 -1.0
vn 0.0 0.0 -1.0
vn 0.0 0.0 -1.0
vn 0.0 0.0 -1.0
vn 0.0 0.0 -1.0
vn 0.0 0.0 -1.0
vn 0.0 -0.0 -1.0
vn 0.0 -0.0 -1.0
vn 0.0 0.0 -1.0
vn 0.0 0.0 -1.0
vn 0.0 0.0 -1.0
vn -0.9848077893257141 -0.17364813387393951 0.0
vn -0.8660253286361694 -0.5000001192092896 0.0
vn -0.9848077893257141 -0.17364813387393951 0.0
vn -0.8660253286361694 -0.5000001192092896 0.0
vn -0.6427876353263855 -0.7660443186759949 0.0
vn -0.6427876353263855 -0.7660443186759949 -0.0
vn -0.3420200049877167 -0.9396926164627075 0.0
vn -0.3420200049877167 -0.9396926164627075 -0.0
vn 0.0 -1.0 0.0
vn 0.3420200049877167 -0.9396926164627075 0.0
vn -0.0 -1.0 -0.0
vn 0.6427876353263855 -0.7660443186759949 0.0
vn 0.3420200049877167 -0.9396926164627075 0.0
vn 0.8660253286361694 -0.5000001192092896 0.0
vn 0.6427876353263855 -0.7660443186759949 0.0
vn 0.8660253286361694 -0.5000001192092896 0.0
vn 0.9848077893257141 -0.17364813387393951 0.0
vn 0.9848077893257141 -0.17364813387393951 0.0
vn 0.9848077893257141 0.17364813387393951 0.0
vn 0.9848077893257141 0.17364813387393951 0.0
vn 0.8660253286361694 0.5000001192092896 0.0
vn 0.6427876353263855 0.7660443186759949 -0.0
vn 0.8660253286361694 0.5000001192092896 0.0
vn 0.6427876353263855 0.7660443186759949 0.0
vn 0.3420200049877167 0.9396926164627075 0.0
vn 0.3420200049877167 0.9396926164627075 0.0
vn 0.0 1.0 0.0
vn -0.0 1.0 0.0
vn -0.3420200049877167 0.9396926164627075 0.0
vn -0.3420200049877167 0.9396926164627075 0.0
vn -0.6427876353263855 0.7660443186759949 0.0
vn -0.6427876353263855 0.7660443186759949 0.0
vn -0.8660253286361694 0.5000001192092896 0.0
vn -0.8660253286361694 0.5000001192092896 0.0
vn -0.9848077893257141 0.17364813387393951 0.0
vn -0.9848077893257141 0.17364813387393951 0.0
f 1//1 2//1 3//1 
f 4//2 3//2 5//2 
f 4//3 1//3 3//3 
f 6//4 4//4 5//4 
f 7//5 5//5 8//5 
f 7//6 6//6 5//6 
f 9//7 8//7 10//7 
f 9//8 7//8 8//8 
f 11//9 10//9 12//9 
f 11//10 12//10 13//10 
f 11//11 9//11 10//11 
f 14//12 13//12 15//12 
f 14//13 11//13 13//13 
f 16//14 15//14 17//14 
f 16//15 14//15 15//15 
f 18//16 16//16 17//16 
f 19//17 17//17 20//17 
f 19//18 18//18 17//18 
f 21//19 20//19 22//19 
f 21//20 19//20 20//20 
f 23//21 22//21 24//21 
f 23//22 24//22 25//22 
f 23//23 21//23 22//23 
f 26//24 23//24 25//24 
f 27//25 25//25 28//25 
f 27//26 26//26 25//26 
f 29//27 28//27 30//27 
f 29//28 27//28 28//28 
f 31//29 29//29 30//29 
f 31//30 30//30 32//30 
f 33//31 31//31 32//31 
f 33//32 32//32 34//32 
f 35//33 33//33 34//33 
f 35//34 34//34 36//34 
f 35//35 36//35 2//35 
f 1//36 35//36 2//36 
f 26//37 37//37 23//37 
f 38//38 37//38 26//38 
f 39//39 21//39 23//39 
f 39//40 23//40 37//40 
f 40//41 26//41 27//41 
f 40//42 38//42 26//42 
f 19//43 21//43 39//43 
f 41//44 19//44 39//44 
f 42//45 27//45 29//45 
f 42//46 40//46 27//46 
f 18//47 19//47 41//47 
f 43//48 18//48 41//48 
f 31//49 42//49 29//49 
f 44//50 42//50 31//50 
f 16//51 18//51 43//51 
f 45//52 16//52 43//52 
f 33//53 46//53 44//53 
f 33//54 44//54 31//54 
f 14//55 45//55 47//55 
f 14//56 16//56 45//56 
f 48//57 46//57 33//57 
f 35//58 48//58 33//58 
f 11//59 47//59 49//59 
f 11//60 14//60 47//60 
f 50//61 48//61 35//61 
f 1//62 50//62 35//62 
f 9//63 49//63 51//63 
f 9//64 11//64 49//64 
f 52//65 50//65 1//65 
f 4//66 52//66 1//66 
f 7//67 51//67 53//67 
f 7//68 9//68 51//68 
f 6//69 7//69 53//69 
f 6//70 54//70 52//70 
f 6//71 53//71 54//71 
f 6//72 52//72 4//72 
f 55//73 25//73 24//73 
f 55//74 56//74 25//74 
f 22//75 57//75 24//75 
f 24//76 57//76 55//76 
f 25//77 58//77 28//77 
f 56//78 58//78 25//78 
f 22//79 20//79 57//79 
f 20//80 59//80 57//80 
f 28//81 60//81 30//81 
f 58//82 60//82 28//82 
f 20//83 17//83 59//83 
f 17//84 61//84 59//84 
f 60//85 32//85 30//85 
f 60//86 62//86 32//86 
f 17//87 15//87 61//87 
f 15//88 63//88 61//88 
f 64//89 34//89 62//89 
f 62//90 34//90 32//90 
f 63//91 13//91 65//91 
f 15//92 13//92 63//92 
f 64//93 66//93 34//93 
f 66//94 36//94 34//94 
f 65//95 12//95 67//95 
f 13//96 12//96 65//96 
f 66//97 68//97 36//97 
f 68//98 2//98 36//98 
f 67//99 10//99 69//99 
f 12//100 10//100 67//100 
f 68//101 70//101 2//101 
f 70//102 3//102 2//102 
f 69//103 8//103 71//103 
f 10//104 8//104 69//104 
f 8//105 5//105 71//105 
f 72//106 5//106 70//106 
f 71//107 5//107 72//107 
f 70//108 5//108 3//108 
f 68//109 50//109 70//109 
f 70//110 52//110 72//110 
f 50//111 52//111 70//111 
f 52//112 54//112 72//112 
f 72//113 53//113 71//113 
f 54//114 53//114 72//114 
f 71//115 51//115 69//115 
f 53//116 51//116 71//116 
f 69//117 49//117 67//117 
f 67//118 49//118 65//118 
f 51//119 49//119 69//119 
f 65//120 47//120 63//120 
f 49//121 47//121 65//121 
f 63//122 45//122 61//122 
f 47//123 45//123 63//123 
f 45//124 43//124 61//124 
f 61//125 41//125 59//125 
f 43//126 41//126 61//126 
f 59//127 39//127 57//127 
f 41//128 39//128 59//128 
f 57//129 37//129 55//129 
f 55//130 37//130 56//130 
f 39//131 37//131 57//131 
f 37//132 38//132 56//132 
f 56//133 40//133 58//133 
f 38//134 40//134 56//134 
f 58//135 42//135 60//135 
f 40//136 42//136 58//136 
f 42//137 44//137 60//137 
f 60//138 44//138 62//138 
f 44//139 46//139 62//139 
f 62//140 46//140 64//140 
f 46//141 48//141 64//141 
f 64//142 48//142 66//142 
f 66//143 48//143 68//143 
f 48//144 50//144 68//144 
