# FreeCAD v0.19 build24267 +99 (Git) Arch module
# http://www.freecadweb.org
mtllib part_spacer_anode_cathode.mtl
o Shape
usemtl color_cccccc
v 10.336618 3.762222 20.0
v 11.0 -0.0 20.0
v 11.0 -0.0 18.0
v 10.336618 3.762222 18.0
v 8.426489 7.070664 20.0
v 8.426489 7.070664 18.0
v 5.5 9.526279 20.0
v 5.5 9.526279 18.0
v 1.91013 10.832886 20.0
v 1.91013 10.832886 18.0
v -1.91013 10.832886 20.0
v -1.91013 10.832886 18.0
v -5.5 9.526279 20.0
v -5.5 9.526279 18.0
v -8.426489 7.070664 20.0
v -8.426489 7.070664 18.0
v -10.336618 3.762222 20.0
v -10.336618 3.762222 18.0
v -11.0 0.0 20.0
v -11.0 0.0 18.0
v -10.336618 -3.762222 20.0
v -10.336618 -3.762222 18.0
v -8.426489 -7.070664 20.0
v -8.426489 -7.070664 18.0
v -5.5 -9.526279 20.0
v -5.5 -9.526279 18.0
v -1.91013 -10.832886 20.0
v -1.91013 -10.832886 18.0
v 1.91013 -10.832886 18.0
v 1.91013 -10.832886 20.0
v 5.5 -9.526279 20.0
v 5.5 -9.526279 18.0
v 8.426489 -7.070664 18.0
v 8.426489 -7.070664 20.0
v 10.336618 -3.762222 20.0
v 10.336618 -3.762222 18.0
v -4.2625 -7.382866 18.0
v -6.530529 -5.479764 18.0
v -8.01088 -2.915722 18.0
v -1.480351 -8.395486 18.0
v -8.525 0.0 18.0
v 1.480351 -8.395486 18.0
v -8.01088 2.915722 18.0
v 4.2625 -7.382866 18.0
v -6.530529 5.479764 18.0
v 6.530529 -5.479764 18.0
v -4.2625 7.382866 18.0
v 8.01088 -2.915722 18.0
v -1.480351 8.395486 18.0
v 1.480351 8.395486 18.0
v 8.01088 2.915722 18.0
v 8.525 -0.0 18.0
v 4.2625 7.382866 18.0
v 6.530529 5.479764 18.0
v -3.175 -5.499261 20.0
v -4.864382 -4.081701 20.0
v -5.967048 -2.171828 20.0
v -1.102666 -6.253529 20.0
v -6.35 0.0 20.0
v 1.102666 -6.253529 20.0
v -5.967048 2.171828 20.0
v 3.175 -5.499261 20.0
v -4.864382 4.081701 20.0
v 4.864382 -4.081701 20.0
v -3.175 5.499261 20.0
v -1.102666 6.253529 20.0
v 5.967048 -2.171828 20.0
v 6.35 -0.0 20.0
v 1.102666 6.253529 20.0
v 5.967048 2.171828 20.0
v 3.175 5.499261 20.0
v 4.864382 4.081701 20.0
v 8.525 -0.0 0.0
v 8.01088 2.915722 0.0
v 6.530529 5.479764 0.0
v 4.2625 7.382866 0.0
v 1.480351 8.395486 0.0
v -1.480351 8.395486 0.0
v -4.2625 7.382866 0.0
v -6.530529 5.479764 0.0
v -8.01088 2.915722 0.0
v -8.525 0.0 0.0
v -8.01088 -2.915722 0.0
v -6.530529 -5.479764 0.0
v -4.2625 -7.382866 0.0
v -1.480351 -8.395486 0.0
v 1.480351 -8.395486 0.0
v 4.2625 -7.382866 0.0
v 6.530529 -5.479764 0.0
v 8.01088 -2.915722 0.0
v 6.35 -0.0 0.0
v 5.967048 2.171828 0.0
v 4.864382 4.081701 0.0
v 3.175 5.499261 0.0
v 1.102666 6.253529 0.0
v -1.102666 6.253529 0.0
v -3.175 5.499261 0.0
v -4.864382 4.081701 0.0
v -5.967048 2.171828 0.0
v -6.35 0.0 0.0
v -5.967048 -2.171828 0.0
v -4.864382 -4.081701 0.0
v -3.175 -5.499261 0.0
v -1.102666 -6.253529 0.0
v 1.102666 -6.253529 0.0
v 3.175 -5.499261 0.0
v 4.864382 -4.081701 0.0
v 5.967048 -2.171828 0.0
vn 0.9848077297210693 0.17364828288555145 0.0
vn 0.9848077297210693 0.17364828288555145 0.0
vn 0.866025447845459 0.49999988079071045 0.0
vn 0.866025447845459 0.49999988079071045 0.0
vn 0.6427875757217407 0.7660444378852844 0.0
vn 0.6427875757217407 0.7660444378852844 0.0
vn 0.3420202434062958 0.9396925568580627 0.0
vn 0.3420202434062958 0.9396925568580627 0.0
vn 0.0 1.0 0.0
vn -0.0 1.0 0.0
vn -0.3420202434062958 0.9396925568580627 0.0
vn -0.3420202434062958 0.9396925568580627 0.0
vn -0.6427875757217407 0.7660444378852844 0.0
vn -0.6427875757217407 0.7660444378852844 0.0
vn -0.866025447845459 0.49999988079071045 0.0
vn -0.866025447845459 0.49999988079071045 0.0
vn -0.9848077297210693 0.17364828288555145 0.0
vn -0.9848077297210693 0.17364828288555145 0.0
vn -0.9848077297210693 -0.17364828288555145 -0.0
vn -0.9848077297210693 -0.17364828288555145 0.0
vn -0.866025447845459 -0.49999988079071045 -0.0
vn -0.866025447845459 -0.49999988079071045 0.0
vn -0.6427875757217407 -0.7660444378852844 -0.0
vn -0.6427875757217407 -0.7660444378852844 0.0
vn -0.3420202434062958 -0.9396925568580627 -0.0
vn 0.0 -1.0 0.0
vn -0.3420202434062958 -0.9396925568580627 0.0
vn -0.0 -1.0 -0.0
vn 0.3420202434062958 -0.9396925568580627 0.0
vn 0.3420202434062958 -0.9396925568580627 0.0
vn 0.6427875757217407 -0.7660444378852844 0.0
vn 0.6427875757217407 -0.7660444378852844 0.0
vn 0.866025447845459 -0.49999988079071045 0.0
vn 0.866025447845459 -0.49999988079071045 0.0
vn 0.9848077297210693 -0.17364828288555145 0.0
vn 0.9848077297210693 -0.17364828288555145 0.0
vn 0.0 0.0 -1.0
vn 0.0 -0.0 -1.0
vn 0.0 0.0 -1.0
vn 0.0 0.0 -1.0
vn 0.0 0.0 -1.0
vn 0.0 -0.0 -1.0
vn 0.0 0.0 -1.0
vn 0.0 0.0 -1.0
vn 0.0 0.0 -1.0
vn 0.0 -0.0 -1.0
vn 0.0 -0.0 -1.0
vn 0.0 0.0 -1.0
vn 0.0 0.0 -1.0
vn 0.0 0.0 -1.0
vn 0.0 -0.0 -1.0
vn 0.0 0.0 -1.0
vn 0.0 -0.0 -1.0
vn 0.0 0.0 -1.0
vn 0.0 0.0 -1.0
vn 0.0 0.0 -1.0
vn 0.0 0.0 -1.0
vn 0.0 0.0 -1.0
vn 0.0 0.0 -1.0
vn 0.0 0.0 -1.0
vn 0.0 0.0 -1.0
vn 0.0 0.0 -1.0
vn 0.0 -0.0 -1.0
vn 0.0 0.0 -1.0
vn 0.0 0.0 -1.0
vn 0.0 0.0 -1.0
vn 0.0 0.0 -1.0
vn 0.0 0.0 -1.0
vn 0.0 -0.0 -1.0
vn 0.0 0.0 -1.0
vn 0.0 0.0 -1.0
vn 0.0 0.0 -1.0
vn 0.0 0.0 1.0
vn 0.0 0.0 1.0
vn 0.0 0.0 1.0
vn 0.0 0.0 1.0
vn 0.0 0.0 1.0
vn 0.0 0.0 1.0
vn 0.0 0.0 1.0
vn 0.0 0.0 1.0
vn 0.0 0.0 1.0
vn 0.0 0.0 1.0
vn 0.0 0.0 1.0
vn 0.0 0.0 1.0
vn 0.0 0.0 1.0
vn 0.0 0.0 1.0
vn 0.0 0.0 1.0
vn 0.0 0.0 1.0
vn 0.0 0.0 1.0
vn 0.0 0.0 1.0
vn 0.0 0.0 1.0
vn 0.0 0.0 1.0
vn 0.0 0.0 1.0
vn 0.0 0.0 1.0
vn 0.0 0.0 1.0
vn 0.0 0.0 1.0
vn 0.0 0.0 1.0
vn 0.0 0.0 1.0
vn 0.0 0.0 1.0
vn 0.0 0.0 1.0
vn 0.0 0.0 1.0
vn 0.0 0.0 1.0
vn 0.0 0.0 1.0
vn 0.0 0.0 1.0
vn 0.0 0.0 1.0
vn 0.0 0.0 1.0
vn 0.0 0.0 1.0
vn 0.0 0.0 1.0
vn 0.9848077297210693 0.17364807426929474 0.0
vn 0.9848077297210693 0.17364807426929474 0.0
vn 0.866025447845459 0.4999999403953552 0.0
vn 0.866025447845459 0.4999999403953552 0.0
vn 0.6427875757217407 0.7660444974899292 0.0
vn 0.6427875757217407 0.7660444974899292 0.0
vn 0.3420201539993286 0.9396926760673523 0.0
vn 0.0 1.0 0.0
vn 0.3420201539993286 0.9396926760673523 0.0
vn -0.0 1.0 0.0
vn -0.3420201539993286 0.9396926760673523 0.0
vn -0.3420201539993286 0.9396926760673523 0.0
vn -0.6427875757217407 0.7660444974899292 0.0
vn -0.6427875757217407 0.7660444974899292 0.0
vn -0.866025447845459 0.4999999403953552 0.0
vn -0.866025447845459 0.4999999403953552 0.0
vn -0.9848077297210693 0.17364807426929474 0.0
vn -0.9848077297210693 -0.17364807426929474 -0.0
vn -0.9848077297210693 0.17364807426929474 0.0
vn -0.9848077297210693 -0.17364807426929474 -0.0
vn -0.866025447845459 -0.4999999403953552 -0.0
vn -0.866025447845459 -0.4999999403953552 0.0
vn -0.6427875757217407 -0.7660444974899292 -0.0
vn -0.6427875757217407 -0.7660444974899292 0.0
vn -0.3420201539993286 -0.9396926760673523 -0.0
vn -0.3420201539993286 -0.9396926760673523 0.0
vn 0.0 -1.0 -0.0
vn 0.3420201539993286 -0.9396926760673523 0.0
vn -0.0 -1.0 0.0
vn 0.3420201539993286 -0.9396926760673523 0.0
vn 0.6427875757217407 -0.7660444974899292 0.0
vn 0.6427875757217407 -0.7660444974899292 0.0
vn 0.866025447845459 -0.4999999403953552 0.0
vn 0.866025447845459 -0.4999999403953552 0.0
vn 0.9848077297210693 -0.17364807426929474 0.0
vn 0.9848077297210693 -0.17364807426929474 0.0
vn -0.9848077893257141 -0.1736481487751007 -0.0
vn -0.9848077893257141 -0.1736481487751007 0.0
vn -0.866025447845459 -0.4999999701976776 0.0
vn -0.6427876353263855 -0.7660444378852844 0.0
vn -0.866025447845459 -0.4999999701976776 0.0
vn -0.6427876353263855 -0.7660444378852844 0.0
vn -0.34202003479003906 -0.9396926760673523 0.0
vn 0.0 -1.0 0.0
vn -0.34202003479003906 -0.9396926760673523 -0.0
vn -0.0 -1.0 0.0
vn 0.34202003479003906 -0.9396926760673523 0.0
vn 0.34202003479003906 -0.9396926760673523 0.0
vn 0.6427876353263855 -0.7660444378852844 0.0
vn 0.866025447845459 -0.4999999701976776 0.0
vn 0.6427876353263855 -0.7660444378852844 0.0
vn 0.9848077893257141 -0.1736481487751007 0.0
vn 0.866025447845459 -0.4999999701976776 0.0
vn 0.9848077893257141 -0.1736481487751007 0.0
vn 0.9848077893257141 0.1736481487751007 0.0
vn 0.9848077893257141 0.1736481487751007 0.0
vn 0.866025447845459 0.4999999701976776 0.0
vn 0.866025447845459 0.4999999701976776 0.0
vn 0.6427876353263855 0.7660444378852844 0.0
vn 0.6427876353263855 0.7660444378852844 0.0
vn 0.34202003479003906 0.9396926760673523 0.0
vn 0.34202003479003906 0.9396926760673523 0.0
vn 0.0 1.0 0.0
vn -0.0 1.0 0.0
vn -0.34202003479003906 0.9396926760673523 0.0
vn -0.34202003479003906 0.9396926760673523 0.0
vn -0.6427876353263855 0.7660444378852844 0.0
vn -0.6427876353263855 0.7660444378852844 0.0
vn -0.866025447845459 0.4999999701976776 0.0
vn -0.866025447845459 0.4999999701976776 0.0
vn -0.9848077893257141 0.1736481487751007 0.0
vn -0.9848077893257141 0.1736481487751007 0.0
vn 0.0 0.0 -1.0
vn 0.0 -0.0 -1.0
vn 0.0 0.0 -1.0
vn 0.0 0.0 -1.0
vn 0.0 0.0 -1.0
vn 0.0 -0.0 -1.0
vn 0.0 -0.0 -1.0
vn 0.0 0.0 -1.0
vn 0.0 0.0 -1.0
vn 0.0 0.0 -1.0
vn 0.0 -0.0 -1.0
vn 0.0 0.0 -1.0
vn 0.0 0.0 -1.0
vn 0.0 0.0 -1.0
vn 0.0 -0.0 -1.0
vn 0.0 0.0 -1.0
vn 0.0 -0.0 -1.0
vn 0.0 0.0 -1.0
vn 0.0 0.0 -1.0
vn 0.0 0.0 -1.0
vn 0.0 -0.0 -1.0
vn 0.0 0.0 -1.0
vn 0.0 0.0 -1.0
vn 0.0 0.0 -1.0
vn 0.0 -0.0 -1.0
vn 0.0 0.0 -1.0
vn 0.0 0.0 -1.0
vn 0.0 0.0 -1.0
vn 0.0 0.0 -1.0
vn 0.0 0.0 -1.0
vn 0.0 -0.0 -1.0
vn 0.0 0.0 -1.0
vn 0.0 -0.0 -1.0
vn 0.0 0.0 -1.0
vn 0.0 0.0 -1.0
vn 0.0 0.0 -1.0
f 1//1 2//1 3//1 
f 1//2 3//2 4//2 
f 5//3 4//3 6//3 
f 5//4 1//4 4//4 
f 7//5 6//5 8//5 
f 7//6 5//6 6//6 
f 9//7 8//7 10//7 
f 9//8 7//8 8//8 
f 11//9 10//9 12//9 
f 11//10 9//10 10//10 
f 13//11 12//11 14//11 
f 13//12 11//12 12//12 
f 15//13 14//13 16//13 
f 15//14 13//14 14//14 
f 17//15 16//15 18//15 
f 17//16 15//16 16//16 
f 19//17 18//17 20//17 
f 19//18 17//18 18//18 
f 21//19 20//19 22//19 
f 21//20 19//20 20//20 
f 23//21 22//21 24//21 
f 23//22 21//22 22//22 
f 25//23 24//23 26//23 
f 25//24 23//24 24//24 
f 27//25 26//25 28//25 
f 27//26 28//26 29//26 
f 27//27 25//27 26//27 
f 30//28 27//28 29//28 
f 31//29 30//29 29//29 
f 31//30 29//30 32//30 
f 31//31 32//31 33//31 
f 34//32 31//32 33//32 
f 35//33 34//33 33//33 
f 35//34 33//34 36//34 
f 2//35 35//35 36//35 
f 2//36 36//36 3//36 
f 24//37 37//37 26//37 
f 38//38 37//38 24//38 
f 22//39 39//39 24//39 
f 24//40 39//40 38//40 
f 26//41 40//41 28//41 
f 37//42 40//42 26//42 
f 20//43 41//43 22//43 
f 22//44 41//44 39//44 
f 28//45 42//45 29//45 
f 40//46 42//46 28//46 
f 18//47 43//47 20//47 
f 20//48 43//48 41//48 
f 29//49 44//49 32//49 
f 42//50 44//50 29//50 
f 16//51 45//51 18//51 
f 18//52 45//52 43//52 
f 46//53 33//53 44//53 
f 44//54 33//54 32//54 
f 16//55 47//55 45//55 
f 16//56 14//56 47//56 
f 46//57 48//57 33//57 
f 48//58 36//58 33//58 
f 47//59 12//59 49//59 
f 14//60 12//60 47//60 
f 12//61 50//61 49//61 
f 51//62 3//62 52//62 
f 52//63 3//63 48//63 
f 48//64 3//64 36//64 
f 50//65 10//65 53//65 
f 12//66 10//66 50//66 
f 51//67 4//67 3//67 
f 10//68 8//68 53//68 
f 8//69 6//69 53//69 
f 51//70 6//70 4//70 
f 54//71 6//71 51//71 
f 53//72 6//72 54//72 
f 55//73 23//73 25//73 
f 55//74 56//74 23//74 
f 57//75 21//75 23//75 
f 57//76 23//76 56//76 
f 58//77 25//77 27//77 
f 58//78 55//78 25//78 
f 59//79 19//79 21//79 
f 59//80 21//80 57//80 
f 60//81 27//81 30//81 
f 60//82 58//82 27//82 
f 61//83 17//83 19//83 
f 61//84 19//84 59//84 
f 62//85 30//85 31//85 
f 62//86 60//86 30//86 
f 63//87 15//87 17//87 
f 63//88 17//88 61//88 
f 34//89 64//89 62//89 
f 34//90 62//90 31//90 
f 65//91 15//91 63//91 
f 13//92 15//92 65//92 
f 66//93 13//93 65//93 
f 35//94 67//94 64//94 
f 35//95 64//95 34//95 
f 11//96 13//96 66//96 
f 2//97 68//97 67//97 
f 2//98 67//98 35//98 
f 9//99 66//99 69//99 
f 9//100 11//100 66//100 
f 1//101 70//101 68//101 
f 1//102 68//102 2//102 
f 7//103 69//103 71//103 
f 7//104 9//104 69//104 
f 5//105 7//105 71//105 
f 5//106 72//106 70//106 
f 5//107 71//107 72//107 
f 5//108 70//108 1//108 
f 51//109 52//109 73//109 
f 51//110 73//110 74//110 
f 54//111 74//111 75//111 
f 54//112 51//112 74//112 
f 53//113 75//113 76//113 
f 53//114 54//114 75//114 
f 50//115 76//115 77//115 
f 50//116 77//116 78//116 
f 50//117 53//117 76//117 
f 49//118 50//118 78//118 
f 47//119 78//119 79//119 
f 47//120 49//120 78//120 
f 45//121 79//121 80//121 
f 45//122 47//122 79//122 
f 43//123 80//123 81//123 
f 43//124 45//124 80//124 
f 41//125 81//125 82//125 
f 41//126 82//126 83//126 
f 41//127 43//127 81//127 
f 39//128 41//128 83//128 
f 38//129 83//129 84//129 
f 38//130 39//130 83//130 
f 37//131 84//131 85//131 
f 37//132 38//132 84//132 
f 40//133 85//133 86//133 
f 40//134 37//134 85//134 
f 42//135 86//135 87//135 
f 42//136 87//136 88//136 
f 42//137 40//137 86//137 
f 44//138 42//138 88//138 
f 46//139 44//139 88//139 
f 46//140 88//140 89//140 
f 46//141 89//141 90//141 
f 48//142 46//142 90//142 
f 52//143 48//143 90//143 
f 52//144 90//144 73//144 
f 68//145 70//145 91//145 
f 91//146 70//146 92//146 
f 92//147 70//147 93//147 
f 93//148 72//148 94//148 
f 70//149 72//149 93//149 
f 72//150 71//150 94//150 
f 94//151 69//151 95//151 
f 95//152 69//152 96//152 
f 71//153 69//153 94//153 
f 69//154 66//154 96//154 
f 96//155 65//155 97//155 
f 66//156 65//156 96//156 
f 97//157 63//157 98//157 
f 98//158 63//158 99//158 
f 65//159 63//159 97//159 
f 99//160 61//160 100//160 
f 63//161 61//161 99//161 
f 61//162 59//162 100//162 
f 100//163 57//163 101//163 
f 59//164 57//164 100//164 
f 101//165 56//165 102//165 
f 57//166 56//166 101//166 
f 102//167 55//167 103//167 
f 56//168 55//168 102//168 
f 103//169 58//169 104//169 
f 55//170 58//170 103//170 
f 104//171 60//171 105//171 
f 58//172 60//172 104//172 
f 60//173 62//173 105//173 
f 105//174 62//174 106//174 
f 106//175 62//175 107//175 
f 62//176 64//176 107//176 
f 64//177 67//177 107//177 
f 107//178 67//178 108//178 
f 108//179 67//179 91//179 
f 67//180 68//180 91//180 
f 84//181 103//181 85//181 
f 102//182 103//182 84//182 
f 83//183 101//183 84//183 
f 84//184 101//184 102//184 
f 85//185 104//185 86//185 
f 103//186 104//186 85//186 
f 104//187 87//187 86//187 
f 82//188 100//188 83//188 
f 83//189 100//189 101//189 
f 104//190 105//190 87//190 
f 81//191 99//191 82//191 
f 82//192 99//192 100//192 
f 87//193 106//193 88//193 
f 105//194 106//194 87//194 
f 80//195 98//195 81//195 
f 81//196 98//196 99//196 
f 107//197 89//197 106//197 
f 106//198 89//198 88//198 
f 80//199 97//199 98//199 
f 80//200 79//200 97//200 
f 108//201 90//201 107//201 
f 107//202 90//202 89//202 
f 79//203 96//203 97//203 
f 79//204 78//204 96//204 
f 91//205 73//205 108//205 
f 108//206 73//206 90//206 
f 96//207 77//207 95//207 
f 78//208 77//208 96//208 
f 92//209 74//209 91//209 
f 91//210 74//210 73//210 
f 77//211 76//211 95//211 
f 95//212 76//212 94//212 
f 76//213 75//213 94//213 
f 93//214 75//214 92//214 
f 94//215 75//215 93//215 
f 92//216 75//216 74//216 
